<svg width="692" height="111" viewBox="0 0 692 111" fill="none" xmlns="http://www.w3.org/2000/svg">
<path fill-rule="evenodd" clip-rule="evenodd" d="M32.4883 53.4062H21.0938V53.3906C20.8164 53.4023 20.5117 53.4062 20.1914 53.4062H10.9297V44.5586C10.9297 40.5586 11.8516 39.8672 12.9531 39.8672C13.418 39.8672 13.9297 39.9258 14.4336 39.9805C15.0664 40.0547 15.6953 40.125 16.3203 40.125C19.3555 40.125 21.8633 38.9414 21.8633 32.0898C21.8633 25.2187 19.3203 24.043 16.2539 24.043C15.6484 24.043 15.0195 24.1133 14.3906 24.1836C13.8945 24.2344 13.3984 24.2891 12.9258 24.2891C11.8359 24.2891 10.9297 23.6406 10.9297 19.8438V14.0273C10.9297 13.1328 11.3047 12.3125 11.8984 11.7188C12.5 11.1328 13.3281 10.7695 14.2383 10.7695H20.2266C27.082 10.7695 28.2539 8.27734 28.2539 5.26953C28.2539 4.68359 28.1836 4.07031 28.1172 3.45312C28.0664 2.96484 28.0078 2.47656 28.0078 2.00391C28.0078 0.910156 28.6719 0 32.5781 0C36.4688 0 37.1367 0.875 37.1367 1.9375C37.1367 2.39062 37.082 2.88672 37.0273 3.38281V3.39062C36.9531 4.01172 36.8828 4.63672 36.8828 5.23828H36.8906C36.8906 8.25781 38.1016 10.7695 45.1797 10.7695H54.2227V36.4844C52.0586 35.0547 49.5156 34.2109 46.7812 34.168C41.1641 34.0703 36.2383 37.3672 33.75 42.2539C31.8711 45.9414 31.5859 49.7344 32.4883 53.4062Z" fill="#EE2333"/>
<path fill-rule="evenodd" clip-rule="evenodd" d="M54.2227 75.7695V89.1875H54.1602C54.2031 89.6562 54.2227 90.1992 54.2227 90.8086V99.5938H45.0742C40.2383 99.5938 40.4141 97.8984 40.5938 96.1992C40.9805 92.5547 41.3633 88.9102 32.5781 88.9102C23.7852 88.9102 24.1719 92.5547 24.5586 96.1914C24.6094 96.6602 24.6641 97.1289 24.6641 97.5977C24.6641 98.6875 24 99.5938 20.0547 99.5938H14.2383C13.3281 99.5938 12.5 99.2305 11.8984 98.6445L11.9062 98.6406C11.3047 98.0469 10.9297 97.2305 10.9297 96.3359V90.7031C10.9297 83.7109 8.38281 82.5156 5.31641 82.5117C4.69922 82.5117 4.06641 82.5859 3.4375 82.6523C2.93359 82.7148 2.42969 82.7656 1.96094 82.7656C0.886719 82.7656 0 82.1055 0 78.2734C0 74.4375 0.902343 73.7773 1.98828 73.7773C2.45703 73.7773 2.96094 73.8359 3.46484 73.8906C4.08984 73.957 4.71875 74.0273 5.32812 74.0273C8.39062 74.0273 10.9297 72.8516 10.9297 65.9453V56.957H33.7383C34.0078 57.543 34.3047 58.125 34.6289 58.6992C38.5977 65.7227 46.9688 72.2734 54.2227 75.7695Z" fill="#36B75A"/>
<path fill-rule="evenodd" clip-rule="evenodd" d="M78.3047 56.957H90.3398V57.0195C90.8164 56.9805 91.3633 56.9531 91.9922 56.9531L101.113 56.957V65.9492C101.113 69.8203 100.207 70.4844 99.1055 70.4844C98.6289 70.4844 98.1328 70.4258 97.6328 70.375C97 70.3047 96.375 70.2344 95.7656 70.2344C92.707 70.2344 90.1797 71.4062 90.1797 78.2734C90.1758 85.1289 92.6953 86.3125 95.7344 86.3125C96.3555 86.3125 96.9844 86.2422 97.6172 86.1719C98.1172 86.1172 98.625 86.0547 99.0898 86.0547L99.0938 86.0469C100.191 86.0469 101.113 86.7305 101.113 90.7109V96.3359C101.113 97.2305 100.738 98.0469 100.137 98.6406C99.5391 99.2305 98.7109 99.5938 97.8008 99.5938H91.9922C84.9766 99.5938 83.7734 102.098 83.7734 105.113C83.7734 105.715 83.8477 106.34 83.9141 106.957C83.9727 107.445 84.0312 107.945 84.0312 108.406C84.0312 109.48 83.3633 110.359 79.4648 110.359C75.5586 110.359 74.8984 109.449 74.8984 108.352C74.8984 107.879 74.9453 107.391 75.0039 106.906C75.0742 106.285 75.1367 105.676 75.1367 105.09C75.1406 102.082 73.9727 99.5938 67.1445 99.5938H57.8203V75.7695C65.0742 72.2734 73.4453 65.7227 77.4102 58.6992C77.7344 58.125 78.0312 57.543 78.3047 56.957Z" fill="#37A9AF"/>
<path fill-rule="evenodd" clip-rule="evenodd" d="M92.0586 10.7695H97.8008C98.7148 10.7695 99.5391 11.1328 100.137 11.7227L100.141 11.7188C100.738 12.3125 101.113 13.1328 101.113 14.0273V19.668C101.113 26.6562 103.66 27.8516 106.727 27.8516C107.344 27.8516 107.98 27.7812 108.613 27.7109C109.113 27.6523 109.609 27.5938 110.082 27.5938V27.5898C111.152 27.5898 112.039 28.25 112.039 32.0898C112.039 35.9258 111.148 36.582 110.066 36.582C109.594 36.582 109.09 36.5312 108.594 36.4727C107.961 36.4023 107.332 36.3281 106.719 36.3281C103.656 36.3281 101.113 37.5195 101.113 44.4531V53.4062H79.5547C80.457 49.7344 80.1641 45.9414 78.2891 42.2539C75.7969 37.3672 70.8672 34.0703 65.2617 34.168C62.5312 34.2109 59.9844 35.0547 57.8203 36.4844V21.5586H57.9023C57.8477 21.0586 57.8203 20.4688 57.8203 19.7695V10.7695H66.8984C70.8828 10.7695 71.5586 11.6641 71.5586 12.7461C71.5586 13.2187 71.5039 13.7109 71.4453 14.2031C71.375 14.8242 71.3047 15.4453 71.3047 16.0469C71.3047 19.0547 72.5 21.5352 79.4648 21.5352C86.4258 21.5352 87.625 19.0547 87.625 16.0547C87.625 15.4531 87.5586 14.8281 87.4844 14.2148C87.4258 13.7148 87.3711 13.2188 87.3711 12.75C87.3711 11.668 88.0547 10.7695 92.0586 10.7695Z" fill="#F7CB1C"/>
<path fill-rule="evenodd" clip-rule="evenodd" d="M56.0199 44.2973C57.8246 40.4848 61.4027 38.0668 65.3285 38.0043C69.2543 37.9379 72.8988 40.2348 74.8089 43.977C77.0472 48.3754 76.2855 52.7973 74.0043 56.8364C70.0121 63.9067 61.3558 69.8051 56.0199 72.3676C50.68 69.8051 42.0316 63.9067 38.0355 56.8364C35.7582 52.7973 34.9886 48.3754 37.2347 43.977C39.141 40.2348 42.7855 37.9379 46.7152 38.0043C50.641 38.0668 54.2152 40.4848 56.0199 44.2973Z" fill="#F143A0"/>
<path d="M162.852 10.418C160.574 17.6211 159.734 24.582 159.734 34.2695V72.6523L195.82 30.1367C199.18 26.2383 200.496 22.4609 200.496 18.6836C200.496 15.9648 199.777 13.1328 198.699 10.418H219.438C216.203 20.3359 216.082 27.4219 216.082 37.3398V71.3555C216.082 84.3438 216.922 94.6211 219.438 102.766H198.578C201.094 95.0898 201.695 82.9258 201.695 73.2461V39.2305L166.93 80.5625C162.73 85.5273 161.055 89.4219 161.055 94.2656C161.055 96.9844 161.656 99.8125 162.73 102.766H141.988C144.152 95.4453 145.348 86.8242 145.348 78.5586V39.8242C145.348 29.0781 145.109 19.7461 141.988 10.418H162.852Z" fill="white"/>
<path d="M253.496 38.5234C251.941 43.4844 250.859 48.207 250.859 55.7617V63.4453H274.473V55.7617C274.473 47.9727 273.762 43.2461 271.84 38.5234H290.062C288.504 43.2461 287.426 48.207 287.426 55.7617V81.75C287.426 88.9531 287.668 96.5078 290.062 102.766H271.961C274.238 97.8047 274.473 91.1953 274.473 85.0547V72.4141H250.859V82.9258C250.859 89.4219 251.461 96.2734 253.496 102.766H235.273C236.949 97.5703 237.91 92.2578 237.91 87.2969V55.7617C237.91 47.9727 237.191 43.2461 235.273 38.5234H253.496Z" fill="white"/>
<path d="M303.617 102.766C305.055 98.8672 306.133 95.4453 306.133 85.2891V55.7617C306.133 47.9727 305.418 43.2461 303.496 38.5234H321.723C320.281 43.4844 319.082 48.207 319.082 55.7617V68.0469L329.152 54.8203C334.551 47.7383 336.945 42.7734 337.184 38.5234H356.609C351.93 41.832 347.613 46.4375 343.18 52.5781L332.75 66.75C341.383 80.2109 348.695 91.1953 359.605 102.766H344.977C334.551 92.0234 326.277 81.1562 319.082 70.6445V88.2422C319.082 95.6836 319.922 98.2773 321.723 102.766H303.617Z" fill="white"/>
<path d="M359.613 102.766C363.324 96.7422 367.52 86.1172 371.602 74.8945L381.188 48.6797C381.789 46.9102 382.152 45.6055 382.152 44.0742C382.152 42.4219 381.672 41.0039 380.473 38.5234H396.535C398.094 44.9023 400.254 51.043 402.293 56.7109L409.965 78.2031C413.324 87.5312 416.195 94.6211 421.109 102.766H402.051C402.051 98.2773 401.449 92.8477 398.094 83.2812L388.266 55.0547L380.113 78.9102C375.793 91.6641 374.957 96.625 374.957 100.047V102.766H359.613Z" fill="white"/>
<path d="M501.203 72.5352C501.203 53.875 489.937 46.3164 481.426 46.3164H479.387C471.594 49.8633 468.477 57.7734 468.477 67.5742C468.477 74.6602 470.035 80.6836 473.273 85.6445C477.465 91.9023 482.98 94.9727 488.855 94.9727H490.656C498.445 90.3672 501.203 80.2109 501.203 72.5352ZM485.977 37.1055C499.648 37.1055 514.152 50.8086 514.152 68.9922C514.152 87.6523 502.406 104.184 483.941 104.184C469.195 104.184 455.527 89.8945 455.527 72.4141H443.902V82.9258C443.902 89.4219 444.496 96.2734 446.535 102.766H428.312C429.992 97.5703 430.953 95.0898 430.953 90.957V55.7617C430.953 47.9727 430.23 43.2461 428.312 38.5234H446.535C445.098 43.4844 443.902 48.207 443.902 55.7617V63.4453H456.367C459.125 49.0352 469.316 37.1055 485.977 37.1055Z" fill="white"/>
<path d="M534.664 75.3711C532.145 73.9531 530.707 71.3555 530.707 69.3438C530.707 67.3359 532.027 65.5664 534.426 63.7969L541.5 65.0938C547.012 62.8516 549.891 58.8359 549.891 53.9922C549.891 48.918 545.57 45.4883 539.82 45.4883C534.547 45.4883 528.309 48.8008 524.949 53.2852L525.672 40.0625C529.629 38.5234 535.145 37.1055 540.895 37.1055C551.812 37.1055 562.477 41.9492 562.477 52.5781C562.477 58.4805 559.125 63.6797 552.047 68.168C561.398 71.9453 565.355 77.2578 565.355 85.0547C565.355 97.5703 553.605 104.184 540.301 104.184C533.828 104.184 527.227 102.301 521.957 98.9883L521.121 87.6523C526.152 92.0234 533.707 95.3281 540.66 95.3281C547.734 95.3281 552.172 92.375 552.172 84.3438C552.172 79.1445 547.012 74.4258 542.215 73.2461L534.664 75.3711Z" fill="white"/>
<path d="M593.898 38.5234C592.336 43.4844 591.254 48.207 591.254 55.7617V79.6211L612.355 53.9922C614.992 50.8086 615.953 48.207 615.953 45.6055C615.953 43.3672 615.117 41.1211 613.797 38.5234H632.262C630.82 43.4844 629.617 48.207 629.617 55.7617V81.75C629.617 88.9531 629.863 96.5078 632.262 102.766H614.156C616.434 97.8047 616.672 91.1953 616.672 85.0547V61.6719L595.574 87.418C593.059 90.4883 591.977 93.0859 591.977 95.918C591.977 97.9258 592.574 100.168 593.535 102.766H575.672C577.352 97.5703 578.312 92.2578 578.312 87.2969V55.7617C578.312 47.9727 577.59 43.2461 575.672 38.5234H593.898Z" fill="white"/>
<path d="M661.277 94.7344H663.559C671.828 94.7344 677.941 91.5469 677.941 82.9258C677.941 76.4336 673.387 72.3008 665.477 72.3008C664.277 72.3008 662.719 72.5352 661.277 72.7734V94.7344ZM665.238 65.4492C672.191 65.4492 675.188 61.0781 675.188 56.3594C675.188 49.6211 670.629 46.5547 663.199 46.5547H661.277V64.9766C662.598 65.332 664.035 65.4492 665.238 65.4492ZM661.52 38.5234C681.539 38.5234 687.055 47.7383 687.055 53.9922C687.055 60.0156 684.898 64.5039 677.941 68.0469C685.613 70.7656 691.133 75.25 691.133 84.2266C691.133 99.2266 676.504 102.766 661.277 102.766H645.695C647.613 98.1602 648.328 93.793 648.328 89.6602V55.7617C648.328 47.9727 647.613 43.2461 645.695 38.5234H661.52Z" fill="white"/>
</svg>
