<svg width="113" height="111" viewBox="0 0 113 111" fill="none" xmlns="http://www.w3.org/2000/svg">
<path fill-rule="evenodd" clip-rule="evenodd" d="M32.4883 53.4062H21.0938V53.3906C20.8164 53.4023 20.5117 53.4062 20.1914 53.4062H10.9297V44.5586C10.9297 40.5586 11.8516 39.8672 12.9531 39.8672C13.418 39.8672 13.9297 39.9258 14.4336 39.9805C15.0664 40.0547 15.6953 40.125 16.3203 40.125C19.3555 40.125 21.8633 38.9414 21.8633 32.0898C21.8633 25.2187 19.3203 24.043 16.2539 24.043C15.6484 24.043 15.0195 24.1133 14.3906 24.1836C13.8945 24.2344 13.3984 24.2891 12.9258 24.2891C11.8359 24.2891 10.9297 23.6406 10.9297 19.8438V14.0273C10.9297 13.1328 11.3047 12.3125 11.8984 11.7188C12.5 11.1328 13.3281 10.7695 14.2383 10.7695H20.2266C27.082 10.7695 28.2539 8.27734 28.2539 5.26953C28.2539 4.68359 28.1836 4.07031 28.1172 3.45312C28.0664 2.96484 28.0078 2.47656 28.0078 2.00391C28.0078 0.910156 28.6719 0 32.5781 0C36.4688 0 37.1367 0.875 37.1367 1.9375C37.1367 2.39062 37.082 2.88672 37.0273 3.38281V3.39062C36.9531 4.01172 36.8828 4.63672 36.8828 5.23828H36.8906C36.8906 8.25781 38.1016 10.7695 45.1797 10.7695H54.2227V36.4844C52.0586 35.0547 49.5156 34.2109 46.7812 34.168C41.1641 34.0703 36.2383 37.3672 33.75 42.2539C31.8711 45.9414 31.5859 49.7344 32.4883 53.4062Z" fill="#EE2333"/>
<path fill-rule="evenodd" clip-rule="evenodd" d="M54.2227 75.7695V89.1875H54.1602C54.2031 89.6562 54.2227 90.1992 54.2227 90.8086V99.5938H45.0742C40.2383 99.5938 40.4141 97.8984 40.5938 96.1992C40.9805 92.5547 41.3633 88.9102 32.5781 88.9102C23.7852 88.9102 24.1719 92.5547 24.5586 96.1914C24.6094 96.6602 24.6641 97.1289 24.6641 97.5977C24.6641 98.6875 24 99.5938 20.0547 99.5938H14.2383C13.3281 99.5938 12.5 99.2305 11.8984 98.6445L11.9062 98.6406C11.3047 98.0469 10.9297 97.2305 10.9297 96.3359V90.7031C10.9297 83.7109 8.38281 82.5156 5.31641 82.5117C4.69922 82.5117 4.06641 82.5859 3.4375 82.6523C2.93359 82.7148 2.42969 82.7656 1.96094 82.7656C0.886719 82.7656 0 82.1055 0 78.2734C0 74.4375 0.902343 73.7773 1.98828 73.7773C2.45703 73.7773 2.96094 73.8359 3.46484 73.8906C4.08984 73.957 4.71875 74.0273 5.32812 74.0273C8.39062 74.0273 10.9297 72.8516 10.9297 65.9453V56.957H33.7383C34.0078 57.543 34.3047 58.125 34.6289 58.6992C38.5977 65.7227 46.9688 72.2734 54.2227 75.7695Z" fill="#36B75A"/>
<path fill-rule="evenodd" clip-rule="evenodd" d="M78.3047 56.957H90.3398V57.0195C90.8164 56.9805 91.3633 56.9531 91.9922 56.9531L101.113 56.957V65.9492C101.113 69.8203 100.207 70.4844 99.1055 70.4844C98.6289 70.4844 98.1328 70.4258 97.6328 70.375C97 70.3047 96.375 70.2344 95.7656 70.2344C92.707 70.2344 90.1797 71.4062 90.1797 78.2734C90.1758 85.1289 92.6953 86.3125 95.7344 86.3125C96.3555 86.3125 96.9844 86.2422 97.6172 86.1719C98.1172 86.1172 98.625 86.0547 99.0898 86.0547L99.0938 86.0469C100.191 86.0469 101.113 86.7305 101.113 90.7109V96.3359C101.113 97.2305 100.738 98.0469 100.137 98.6406C99.5391 99.2305 98.7109 99.5938 97.8008 99.5938H91.9922C84.9766 99.5938 83.7734 102.098 83.7734 105.113C83.7734 105.715 83.8477 106.34 83.9141 106.957C83.9727 107.445 84.0312 107.945 84.0312 108.406C84.0312 109.48 83.3633 110.359 79.4648 110.359C75.5586 110.359 74.8984 109.449 74.8984 108.352C74.8984 107.879 74.9453 107.391 75.0039 106.906C75.0742 106.285 75.1367 105.676 75.1367 105.09C75.1406 102.082 73.9727 99.5938 67.1445 99.5938H57.8203V75.7695C65.0742 72.2734 73.4453 65.7227 77.4102 58.6992C77.7344 58.125 78.0312 57.543 78.3047 56.957Z" fill="#37A9AF"/>
<path fill-rule="evenodd" clip-rule="evenodd" d="M92.0586 10.7695H97.8008C98.7148 10.7695 99.5391 11.1328 100.137 11.7227L100.141 11.7188C100.738 12.3125 101.113 13.1328 101.113 14.0273V19.668C101.113 26.6562 103.66 27.8516 106.727 27.8516C107.344 27.8516 107.98 27.7812 108.613 27.7109C109.113 27.6523 109.609 27.5938 110.082 27.5938V27.5898C111.152 27.5898 112.039 28.25 112.039 32.0898C112.039 35.9258 111.148 36.582 110.066 36.582C109.594 36.582 109.09 36.5312 108.594 36.4727C107.961 36.4023 107.332 36.3281 106.719 36.3281C103.656 36.3281 101.113 37.5195 101.113 44.4531V53.4062H79.5547C80.457 49.7344 80.1641 45.9414 78.2891 42.2539C75.7969 37.3672 70.8672 34.0703 65.2617 34.168C62.5312 34.2109 59.9844 35.0547 57.8203 36.4844V21.5586H57.9023C57.8477 21.0586 57.8203 20.4688 57.8203 19.7695V10.7695H66.8984C70.8828 10.7695 71.5586 11.6641 71.5586 12.7461C71.5586 13.2187 71.5039 13.7109 71.4453 14.2031C71.375 14.8242 71.3047 15.4453 71.3047 16.0469C71.3047 19.0547 72.5 21.5352 79.4648 21.5352C86.4258 21.5352 87.625 19.0547 87.625 16.0547C87.625 15.4531 87.5586 14.8281 87.4844 14.2148C87.4258 13.7148 87.3711 13.2188 87.3711 12.75C87.3711 11.668 88.0547 10.7695 92.0586 10.7695Z" fill="#F7CB1C"/>
<path fill-rule="evenodd" clip-rule="evenodd" d="M56.0199 44.2973C57.8246 40.4848 61.4027 38.0668 65.3285 38.0043C69.2543 37.9379 72.8988 40.2348 74.8089 43.977C77.0472 48.3754 76.2855 52.7973 74.0043 56.8364C70.0121 63.9067 61.3558 69.8051 56.0199 72.3676C50.68 69.8051 42.0316 63.9067 38.0355 56.8364C35.7582 52.7973 34.9886 48.3754 37.2347 43.977C39.141 40.2348 42.7855 37.9379 46.7152 38.0043C50.641 38.0668 54.2152 40.4848 56.0199 44.2973Z" fill="#F143A0"/>
</svg>
